# xmcd CD database file
#
# Track frame offsets:
#	150
#	13987
#	32375
#
# Disc length: 756 seconds
#
# Revision: 3
# Processed by: cddbd v1.5.1PL0 Copyright (c) Steve Scherf et al.
# Submitted via: CDex 1.51
#
DISCID=1902f203
DTITLE=RAMJET PULLEY - Final way
DYEAR=2001
DGENRE=Pop
TTITLE0=Final way
TTITLE1=bird
TTITLE2=I believe
EXTD=Released - 2001.08.22 GZCA-2007 YEAR: 2001
EXTT0=
EXTT1=
EXTT2=
PLAYORDER=
